<svg xmlns="http://www.w3.org/2000/svg" width="256" height="256" viewBox="0 0 256 256">
  <defs>
    <linearGradient id="bg" x1="0" y1="0" x2="0" y2="1">
      <stop offset="0" stop-color="#2a93ff"/>
      <stop offset="1" stop-color="#0057d8"/>
    </linearGradient>
  </defs>
  <rect x="0" y="0" width="256" height="256" rx="56" fill="url(#bg)"/>
  <!-- сложенная карта -->
  <g>
    <path d="M40 135 L95 118 L150 135 L210 118 L210 200 L150 217 L95 200 L40 217 Z"
          fill="#ffffff" opacity="0.96"/>
    <path d="M95 118 L95 200 M150 135 L150 217" stroke="#9bbce6" stroke-width="5" fill="none"/>
    <path d="M52 152 H198 M52 170 H198 M52 188 H198" stroke="#dbe7f7" stroke-width="4"
          fill="none" stroke-linecap="round" opacity="0.8"/>
  </g>
  <!-- локатор (пин) -->
  <g>
    <path d="M128 40 a44 44 0 0 1 44 44 c0 33 -44 80 -44 80 s-44 -47 -44 -80 a44 44 0 0 1 44 -44 z"
          fill="#ff5a3c"/>
    <circle cx="128" cy="84" r="20" fill="#ffffff"/>
  </g>
</svg>